<svg xmlns="http://www.w3.org/2000/svg" width="1440" viewBox="0 0 1440 810" height="810" version="1.0"><path fill="#FFF" d="M-144 -81H1584V891H-144z"/><path fill="#FFF" d="M-144 -81H1584V891H-144z"/><path fill="#18224B" d="M-144 -81H1584V891H-144z"/><path fill="#FBE820" d="M 565.714844 243 C 565.207031 243 564.707031 243.050781 564.210938 243.148438 C 563.710938 243.246094 563.230469 243.394531 562.761719 243.585938 C 562.292969 243.78125 561.847656 244.019531 561.429688 244.300781 C 561.007812 244.582031 560.617188 244.902344 560.257812 245.261719 C 559.902344 245.617188 559.582031 246.007812 559.300781 246.429688 C 559.019531 246.851562 558.78125 247.292969 558.585938 247.761719 C 558.394531 248.230469 558.246094 248.710938 558.148438 249.210938 C 558.050781 249.707031 558 250.207031 558 250.714844 L 558 559.285156 C 558 559.792969 558.050781 560.292969 558.148438 560.789062 C 558.246094 561.289062 558.394531 561.769531 558.585938 562.238281 C 558.78125 562.707031 559.019531 563.152344 559.300781 563.570312 C 559.582031 563.992188 559.902344 564.382812 560.261719 564.742188 C 560.617188 565.097656 561.007812 565.417969 561.429688 565.699219 C 561.851562 565.980469 562.292969 566.21875 562.761719 566.414062 C 563.230469 566.605469 563.710938 566.753906 564.210938 566.851562 C 564.707031 566.949219 565.207031 567 565.714844 567 L 874.285156 567 C 874.792969 567 875.292969 566.949219 875.789062 566.851562 C 876.289062 566.753906 876.769531 566.605469 877.238281 566.414062 C 877.707031 566.21875 878.152344 565.980469 878.570312 565.699219 C 878.992188 565.417969 879.382812 565.097656 879.742188 564.738281 C 880.097656 564.382812 880.417969 563.992188 880.699219 563.570312 C 880.980469 563.148438 881.21875 562.707031 881.414062 562.238281 C 881.605469 561.769531 881.753906 561.289062 881.851562 560.789062 C 881.949219 560.292969 882 559.792969 882 559.285156 L 882 250.714844 C 882 250.207031 881.949219 249.707031 881.851562 249.210938 C 881.753906 248.710938 881.605469 248.230469 881.414062 247.761719 C 881.21875 247.292969 880.980469 246.847656 880.699219 246.429688 C 880.417969 246.007812 880.097656 245.617188 879.738281 245.257812 C 879.382812 244.902344 878.992188 244.582031 878.570312 244.300781 C 878.148438 244.019531 877.707031 243.78125 877.238281 243.585938 C 876.769531 243.394531 876.289062 243.246094 875.789062 243.148438 C 875.292969 243.050781 874.792969 243 874.285156 243 Z M 573.429688 258.429688 L 866.570312 258.429688 L 866.570312 551.570312 L 573.429688 551.570312 Z M 612 312.429688 L 612 316.285156 L 626.328125 335.570312 C 627.039062 336.414062 627.429688 337.472656 627.429688 338.570312 L 627.429688 455.144531 C 627.429688 456.847656 626.835938 458.5 625.757812 459.828125 L 604.285156 486.363281 L 604.285156 489.855469 L 666 489.855469 L 666 486.363281 L 644.515625 459.679688 C 643.441406 458.359375 642.855469 456.695312 642.855469 455.007812 L 642.855469 353.894531 L 706.921875 489.855469 L 718.824219 489.855469 L 718.871094 489.707031 L 774 350.066406 L 774 464.785156 C 774 466.019531 773.5 467.207031 772.613281 468.085938 L 750.855469 486.363281 L 750.855469 489.855469 L 835.714844 489.855469 L 835.714844 486.363281 L 821.671875 468.085938 C 820.785156 467.207031 820.285156 466.019531 820.285156 464.785156 L 820.285156 336.535156 C 820.285156 335.300781 820.785156 334.117188 821.671875 333.234375 L 835.714844 316.285156 L 835.714844 312.429688 L 772.265625 312.429688 L 727.683594 425.386719 L 674.46875 312.429688 Z M 647.648438 327.855469 L 664.675781 327.855469 L 719.910156 445.078125 L 712.148438 464.742188 L 712.136719 464.742188 Z M 789.429688 327.855469 L 806.847656 327.855469 C 805.558594 330.542969 804.855469 333.527344 804.855469 336.535156 L 804.855469 464.785156 C 804.855469 468.164062 805.730469 471.488281 807.34375 474.429688 L 786.941406 474.429688 C 788.554688 471.488281 789.429688 468.164062 789.429688 464.785156 Z M 789.429688 327.855469"/></svg>