<svg xmlns="http://www.w3.org/2000/svg" width="1440" viewBox="0 0 1440 810" height="810" version="1.0"><path fill="#FFF" d="M-144 -81H1584V891H-144z"/><path fill="#FFF" d="M-144 -81H1584V891H-144z"/><path fill="#18224B" d="M-144 -81H1584V891H-144z"/><path fill="#010101" d="M 606.601562 243 L 833.398438 243 C 834.992188 243 836.578125 243.078125 838.164062 243.234375 C 839.746094 243.390625 841.320312 243.625 842.882812 243.933594 C 844.441406 244.246094 845.984375 244.628906 847.507812 245.09375 C 849.03125 245.554688 850.527344 246.089844 852 246.699219 C 853.46875 247.308594 854.90625 247.988281 856.308594 248.738281 C 857.714844 249.488281 859.078125 250.304688 860.402344 251.191406 C 861.722656 252.074219 863 253.023438 864.230469 254.03125 C 865.460938 255.042969 866.640625 256.109375 867.765625 257.234375 C 868.890625 258.359375 869.957031 259.539062 870.96875 260.769531 C 871.976562 262 872.925781 263.277344 873.808594 264.597656 C 874.695312 265.921875 875.511719 267.285156 876.261719 268.691406 C 877.011719 270.09375 877.691406 271.53125 878.300781 273 C 878.910156 274.472656 879.445312 275.96875 879.90625 277.492188 C 880.371094 279.015625 880.753906 280.558594 881.066406 282.117188 C 881.375 283.679688 881.609375 285.253906 881.765625 286.835938 C 881.921875 288.421875 882 290.007812 882 291.601562 L 882 518.398438 C 882 519.992188 881.921875 521.578125 881.765625 523.164062 C 881.609375 524.746094 881.375 526.320312 881.066406 527.882812 C 880.753906 529.441406 880.371094 530.984375 879.90625 532.507812 C 879.445312 534.03125 878.910156 535.527344 878.300781 537 C 877.691406 538.46875 877.011719 539.90625 876.261719 541.308594 C 875.511719 542.714844 874.695312 544.078125 873.808594 545.402344 C 872.925781 546.722656 871.976562 548 870.96875 549.230469 C 869.957031 550.460938 868.890625 551.640625 867.765625 552.765625 C 866.640625 553.890625 865.460938 554.957031 864.230469 555.96875 C 863 556.976562 861.722656 557.925781 860.402344 558.808594 C 859.078125 559.695312 857.714844 560.511719 856.308594 561.261719 C 854.90625 562.011719 853.46875 562.691406 852 563.300781 C 850.527344 563.910156 849.03125 564.445312 847.507812 564.90625 C 845.984375 565.371094 844.441406 565.753906 842.882812 566.066406 C 841.320312 566.375 839.746094 566.609375 838.164062 566.765625 C 836.578125 566.921875 834.992188 567 833.398438 567 L 606.601562 567 C 605.007812 567 603.421875 566.921875 601.835938 566.765625 C 600.253906 566.609375 598.679688 566.375 597.117188 566.066406 C 595.558594 565.753906 594.015625 565.371094 592.492188 564.90625 C 590.96875 564.445312 589.472656 563.910156 588 563.300781 C 586.53125 562.691406 585.09375 562.011719 583.691406 561.261719 C 582.285156 560.511719 580.921875 559.695312 579.597656 558.808594 C 578.277344 557.925781 577 556.976562 575.769531 555.96875 C 574.539062 554.957031 573.359375 553.890625 572.234375 552.765625 C 571.109375 551.640625 570.042969 550.460938 569.03125 549.230469 C 568.023438 548 567.074219 546.722656 566.191406 545.402344 C 565.304688 544.078125 564.488281 542.714844 563.738281 541.308594 C 562.988281 539.90625 562.308594 538.46875 561.699219 537 C 561.089844 535.527344 560.554688 534.03125 560.09375 532.507812 C 559.628906 530.984375 559.246094 529.441406 558.933594 527.882812 C 558.625 526.320312 558.390625 524.746094 558.234375 523.164062 C 558.078125 521.578125 558 519.992188 558 518.398438 L 558 291.601562 C 558 290.007812 558.078125 288.421875 558.234375 286.835938 C 558.390625 285.253906 558.625 283.679688 558.933594 282.117188 C 559.246094 280.558594 559.628906 279.015625 560.09375 277.492188 C 560.554688 275.96875 561.089844 274.472656 561.699219 273 C 562.308594 271.53125 562.988281 270.09375 563.738281 268.691406 C 564.488281 267.285156 565.304688 265.921875 566.191406 264.597656 C 567.074219 263.277344 568.023438 262 569.03125 260.769531 C 570.042969 259.539062 571.109375 258.359375 572.234375 257.234375 C 573.359375 256.109375 574.539062 255.042969 575.769531 254.03125 C 577 253.023438 578.277344 252.074219 579.597656 251.191406 C 580.921875 250.304688 582.285156 249.488281 583.691406 248.738281 C 585.09375 247.988281 586.53125 247.308594 588 246.699219 C 589.472656 246.089844 590.96875 245.554688 592.492188 245.09375 C 594.015625 244.628906 595.558594 244.246094 597.117188 243.933594 C 598.679688 243.625 600.253906 243.390625 601.835938 243.234375 C 603.421875 243.078125 605.007812 243 606.601562 243 Z M 606.601562 243"/><path fill="#FBE820" d="M 637.101562 352.476562 C 637.101562 349.945312 635.835938 346.78125 633.9375 345.515625 L 614.320312 321.46875 L 614.320312 317.671875 L 676.335938 317.671875 L 723.796875 422.71875 L 766.195312 317.671875 L 825.046875 317.671875 L 825.046875 321.46875 L 807.960938 337.921875 C 806.695312 338.554688 806.0625 340.453125 806.0625 342.351562 L 806.0625 462.585938 C 806.0625 464.484375 806.695312 466.382812 807.960938 467.648438 L 825.046875 483.46875 L 825.046875 487.265625 L 740.882812 487.265625 L 740.882812 483.46875 L 757.96875 467.015625 C 759.867188 465.117188 759.867188 464.484375 759.867188 461.953125 L 759.867188 365.132812 L 711.773438 486.632812 L 705.445312 486.632812 L 649.757812 365.132812 L 649.757812 446.765625 C 649.125 449.929688 650.390625 453.726562 652.921875 456.257812 L 675.070312 483.46875 L 675.070312 486.632812 L 611.789062 486.632812 L 611.789062 483.46875 L 633.9375 456.257812 C 636.46875 453.726562 637.734375 449.929688 637.101562 446.765625 Z M 637.101562 352.476562"/></svg>