<svg xmlns="http://www.w3.org/2000/svg" width="1440" viewBox="0 0 1440 810" height="810" version="1.0"><path fill="#FFF" d="M-144 -81H1584V891H-144z"/><path fill="#FFF" d="M-144 -81H1584V891H-144z"/><path fill="#18224B" d="M-144 -81H1584V891H-144z"/><path fill="#FBE820" d="M 852.546875 243 L 587.453125 243 C 571.179688 243 558 256.179688 558 272.453125 L 558 537.546875 C 558 553.820312 571.179688 567 587.453125 567 L 852.546875 567 C 868.820312 567 882 553.820312 882 537.546875 L 882 272.453125 C 882 256.179688 868.820312 243 852.546875 243 Z M 831.074219 493.363281 L 743.726562 493.363281 L 743.726562 488.460938 L 764.183594 470.460938 L 764.183594 367.738281 L 713.945312 493.363281 L 706.097656 493.363281 L 650.046875 366.753906 L 650.046875 456.398438 L 675.671875 488.460938 L 675.671875 493.363281 L 608.925781 493.363281 L 608.925781 488.460938 L 635.421875 456.398438 L 635.421875 349.742188 L 611.871094 320.304688 C 611.871094 320.304688 611.871094 316.046875 611.871094 316.710938 L 676.320312 316.710938 L 726.375 425 L 769.558594 316.710938 L 830.734375 316.710938 L 830.734375 320.304688 L 808.363281 339.109375 L 808.363281 470.460938 L 831.074219 488.460938 Z M 831.074219 493.363281"/></svg>