<svg xmlns="http://www.w3.org/2000/svg" width="1440" viewBox="0 0 1440 810" height="810" version="1.0"><defs><clipPath id="a"><path d="M 558 243 L 882 243 L 882 567 L 558 567 Z M 558 243"/></clipPath></defs><path fill="#FFF" d="M-144 -81H1584V891H-144z"/><path fill="#FFF" d="M-144 -81H1584V891H-144z"/><path fill="#18224B" d="M-144 -81H1584V891H-144z"/><g clip-path="url(#a)"><path fill="#FBE820" d="M 622.910156 242.773438 C 587.179688 242.773438 558.109375 271.84375 558.109375 307.570312 L 558.109375 501.972656 C 558.109375 537.703125 587.179688 566.773438 622.910156 566.773438 L 817.308594 566.773438 C 853.039062 566.773438 882.109375 537.703125 882.109375 501.972656 L 882.109375 307.570312 C 882.109375 271.835938 853.039062 242.773438 817.308594 242.773438 Z M 622.910156 252.742188 L 817.308594 252.742188 C 847.539062 252.742188 872.140625 277.339844 872.140625 307.570312 L 872.140625 501.972656 C 872.140625 532.203125 847.539062 556.804688 817.308594 556.804688 L 622.910156 556.804688 C 592.675781 556.804688 568.078125 532.203125 568.078125 501.972656 L 568.078125 307.570312 C 568.078125 277.339844 592.675781 252.742188 622.910156 252.742188 Z M 637.046875 267.6875 C 607.257812 267.6875 583.03125 291.921875 583.03125 321.707031 L 583.03125 487.828125 C 583.03125 517.613281 607.257812 541.839844 637.046875 541.839844 L 803.164062 541.839844 C 832.953125 541.839844 857.1875 517.613281 857.1875 487.828125 L 857.1875 394.804688 C 857.1875 393.421875 856.074219 392.3125 854.695312 392.3125 C 853.316406 392.3125 852.203125 393.425781 852.203125 394.804688 L 852.203125 487.828125 C 852.203125 514.863281 830.199219 536.863281 803.164062 536.863281 L 637.046875 536.863281 C 610.007812 536.863281 588.015625 514.863281 588.015625 487.828125 L 588.015625 321.707031 C 588.015625 294.671875 610.007812 272.671875 637.046875 272.671875 L 804.847656 272.671875 C 806.222656 272.671875 807.339844 271.554688 807.339844 270.179688 C 807.339844 268.800781 806.222656 267.6875 804.847656 267.6875 Z M 720.058594 341.695312 C 719.726562 341.695312 686.226562 341.71875 663.953125 343.449219 L 663.019531 343.546875 C 659.367188 343.914062 652.554688 344.597656 646.449219 351.410156 C 641.191406 357.09375 639.539062 369.167969 639.46875 369.714844 C 639.453125 369.855469 637.863281 383.78125 637.863281 397.527344 L 637.863281 410.429688 C 637.863281 424.1875 639.449219 438.113281 639.46875 438.292969 C 639.539062 438.804688 641.191406 450.855469 646.429688 456.496094 C 652.085938 462.804688 659.167969 463.71875 663.390625 464.265625 C 664.152344 464.367188 664.816406 464.441406 665.609375 464.585938 C 678.339844 465.886719 718.378906 466.300781 720.109375 466.320312 C 720.441406 466.320312 753.976562 466.238281 776.265625 464.527344 L 777.226562 464.421875 C 780.875 464.039062 787.671875 463.324219 793.75 456.535156 C 799.011719 450.863281 800.667969 438.804688 800.738281 438.253906 C 800.753906 438.113281 802.34375 424.191406 802.34375 410.4375 L 802.34375 397.539062 C 802.34375 383.785156 800.753906 369.855469 800.738281 369.714844 C 800.734375 369.703125 800.730469 369.691406 800.730469 369.675781 C 800.664062 369.160156 799.011719 357.09375 793.777344 351.441406 C 787.652344 344.597656 780.84375 343.914062 777.1875 343.546875 L 776.136719 343.4375 C 753.964844 341.71875 720.46875 341.695312 720.058594 341.695312 Z M 854.695312 342.464844 C 853.316406 342.464844 852.203125 343.574219 852.203125 344.957031 L 852.203125 354.925781 C 852.203125 356.300781 853.316406 357.417969 854.695312 357.417969 C 856.070312 357.417969 857.1875 356.300781 857.1875 354.925781 L 857.1875 344.957031 C 857.1875 343.582031 856.070312 342.464844 854.695312 342.464844 Z M 720.136719 346.679688 C 720.472656 346.679688 753.777344 346.703125 775.640625 348.394531 L 776.683594 348.5 C 779.878906 348.824219 785.234375 349.371094 790.097656 354.808594 C 793.5625 358.546875 795.378906 367.242188 795.792969 370.308594 C 795.863281 370.921875 797.371094 384.324219 797.371094 397.527344 L 797.371094 410.429688 C 797.371094 423.886719 795.808594 437.539062 795.792969 437.640625 C 795.390625 440.683594 793.5625 449.402344 790.070312 453.175781 C 785.238281 458.566406 779.90625 459.132812 776.710938 459.464844 L 775.757812 459.5625 C 753.78125 461.242188 720.4375 461.328125 720.128906 461.328125 C 719.714844 461.320312 678.632812 460.914062 666.359375 459.671875 C 665.707031 459.542969 664.914062 459.433594 664.023438 459.320312 C 660.253906 458.835938 654.5625 458.097656 650.109375 453.136719 C 646.640625 449.398438 644.824219 440.683594 644.425781 437.679688 C 644.40625 437.542969 642.847656 423.890625 642.847656 410.429688 L 642.847656 397.527344 C 642.847656 384.082031 644.398438 370.421875 644.414062 370.328125 C 644.820312 367.28125 646.636719 358.558594 650.140625 354.769531 C 654.988281 349.367188 660.332031 348.824219 663.527344 348.5 L 664.460938 348.402344 C 686.417969 346.703125 719.730469 346.679688 720.136719 346.679688 Z M 854.695312 362.402344 C 853.316406 362.402344 852.203125 363.519531 852.203125 364.894531 L 852.203125 384.832031 C 852.203125 386.210938 853.316406 387.324219 854.695312 387.324219 C 856.070312 387.324219 857.1875 386.210938 857.1875 384.832031 L 857.1875 364.894531 C 857.1875 363.515625 856.074219 362.402344 854.695312 362.402344 Z M 700.191406 370.84375 C 699.757812 370.839844 699.332031 370.941406 698.945312 371.164062 C 698.160156 371.609375 697.679688 372.4375 697.679688 373.335938 L 697.679688 433.152344 C 697.679688 434.046875 698.160156 434.867188 698.945312 435.3125 C 699.324219 435.527344 699.746094 435.644531 700.171875 435.644531 C 700.613281 435.644531 701.050781 435.519531 701.445312 435.285156 L 751.292969 405.375 C 752.042969 404.925781 752.507812 404.121094 752.507812 403.242188 C 752.507812 402.367188 752.042969 401.554688 751.292969 401.101562 L 701.445312 371.195312 C 701.058594 370.960938 700.625 370.847656 700.191406 370.84375 Z M 702.664062 377.738281 L 745.167969 403.242188 L 702.664062 428.742188 Z M 702.664062 377.738281"/></g></svg>