<svg xmlns="http://www.w3.org/2000/svg" width="1440" viewBox="0 0 1440 810" height="810" version="1.0"><path fill="#FFF" d="M-144 -81H1584V891H-144z"/><path fill="#FFF" d="M-144 -81H1584V891H-144z"/><path fill="#18224B" d="M-144 -81H1584V891H-144z"/><path fill="#FBE820" d="M 713.632812 470.925781 L 713.519531 471.003906 C 711.523438 472.191406 709.222656 472.921875 706.730469 472.921875 C 699.367188 472.921875 693.421875 466.976562 693.421875 459.652344 C 693.421875 454.511719 696.335938 450.140625 700.59375 447.917969 L 700.554688 447.878906 L 769.4375 411.175781 C 769.398438 411.136719 769.28125 411.097656 769.359375 411.097656 C 771.621094 410.023438 773.15625 407.683594 773.15625 405 C 773.15625 402.546875 771.8125 400.398438 769.859375 399.246094 L 689.242188 356.175781 C 688.28125 355.679688 687.324219 355.449219 686.25 355.449219 C 682.644531 355.449219 679.769531 358.285156 679.578125 361.816406 L 679.578125 445.347656 L 679.460938 445.347656 C 679.460938 445.421875 679.5 445.460938 679.5 445.5 C 679.5 452.980469 673.441406 459 666 459 C 658.519531 459 652.460938 452.980469 652.460938 445.5 C 652.460938 445.5 652.460938 445.5 652.460938 445.460938 L 652.460938 351.460938 C 652.460938 336.3125 664.8125 324 679.960938 324 C 685.136719 324 690.007812 325.457031 694.113281 327.949219 C 694.304688 328.027344 694.34375 327.988281 694.496094 328.066406 L 787.613281 381.71875 C 789.609375 382.871094 791.410156 384.25 793.097656 385.902344 C 803.644531 396.484375 803.644531 413.550781 793.097656 424.097656 C 791.527344 425.632812 789.839844 426.9375 788.035156 428.050781 L 714.171875 470.582031 C 714.015625 470.734375 713.824219 470.8125 713.632812 470.925781 Z M 774 540 C 781.480469 540 787.5 546.058594 787.5 553.5 C 787.5 560.980469 781.480469 567 774 567 C 766.519531 567 760.5 560.980469 760.5 553.5 C 760.5 546.058594 766.519531 540 774 540 Z M 931.667969 493.058594 C 931.667969 493.058594 922 526.613281 909.039062 540 C 892.625 557.605469 872.910156 561.324219 864.472656 562.359375 C 861.671875 562.550781 858.835938 562.742188 855.957031 562.894531 L 855.957031 562.820312 C 852.199219 563.089844 848.328125 561.976562 845.449219 559.0625 C 840.195312 553.84375 840.195312 545.371094 845.449219 540.113281 C 847.828125 537.738281 850.894531 536.625 854.003906 536.394531 L 854.003906 536.242188 C 854.425781 536.203125 854.921875 536.203125 855.34375 536.164062 C 862.324219 535.28125 877.589844 535.246094 891.203125 520.707031 C 901.941406 509.625 905.433594 484.503906 905.433594 484.503906 C 905.433594 484.503906 909 455.011719 909 425.519531 L 909 384.328125 C 909 354.835938 905.433594 325.34375 905.433594 325.34375 C 905.433594 325.34375 901.941406 300.183594 891.203125 289.136719 C 877.589844 274.601562 862.324219 274.527344 855.34375 273.683594 C 805.296875 270 720 270 720 270 C 720 270 634.703125 270 584.617188 273.683594 C 577.636719 274.527344 562.410156 274.601562 548.796875 289.136719 C 538.058594 300.183594 534.566406 325.34375 534.566406 325.34375 C 534.566406 325.34375 531 354.835938 531 384.328125 L 531 425.519531 C 531 455.011719 534.566406 484.503906 534.566406 484.503906 C 534.566406 484.503906 538.058594 509.625 548.796875 520.707031 C 562.410156 535.246094 580.28125 534.785156 588.222656 536.316406 C 616.871094 539.078125 720 540 720 540 C 727.441406 540 733.5 546.058594 733.5 553.5 C 733.5 560.980469 727.441406 567 720 567 C 719.769531 567 719.539062 566.960938 719.308594 566.921875 C 710.796875 566.847656 612.921875 565.773438 579.859375 562.511719 C 570.273438 560.671875 547.414062 557.605469 530.960938 540 C 518 526.613281 508.332031 493.058594 508.332031 493.058594 C 508.332031 493.058594 504 464.140625 504 428.394531 L 504 381.414062 C 504 345.707031 508.332031 316.714844 508.332031 316.714844 C 508.332031 316.714844 518 283.386719 530.960938 270 C 547.414062 252.433594 567.089844 248.484375 575.527344 247.488281 C 635.96875 243 719.921875 243 719.921875 243 L 720.078125 243 C 720.078125 243 804.03125 243 864.472656 247.488281 C 872.910156 248.484375 892.625 252.433594 909.039062 270 C 922 283.386719 931.667969 316.714844 931.667969 316.714844 C 931.667969 316.714844 936 345.707031 936 381.414062 L 936 428.394531 C 936 464.140625 931.667969 493.058594 931.667969 493.058594"/></svg>