<svg xmlns="http://www.w3.org/2000/svg" width="1440" viewBox="0 0 1440 810" height="810" version="1.0"><path fill="#FFF" d="M-144 -81H1584V891H-144z"/><path fill="#FFF" d="M-144 -81H1584V891H-144z"/><path fill="#18224B" d="M-144 -81H1584V891H-144z"/><path fill="#18224B" d="M 882 522 C 882 546.859375 861.859375 567 837 567 L 603 567 C 578.152344 567 558 546.859375 558 522 L 558 288 C 558 263.140625 578.152344 243 603 243 L 837 243 C 861.859375 243 882 263.140625 882 288 Z M 882 522"/><path fill="#FBE820" d="M 832.492188 418.480469 C 830.007812 409.636719 822.691406 402.660156 813.394531 400.292969 C 796.554688 396 720 396 720 396 C 720 396 643.445312 396 626.605469 400.300781 C 617.320312 402.667969 609.992188 409.636719 607.507812 418.492188 C 603 434.527344 603 468 603 468 C 603 468 603 501.472656 607.507812 517.519531 C 609.992188 526.363281 617.308594 533.339844 626.605469 535.707031 C 643.445312 540 720 540 720 540 C 720 540 796.546875 540 813.394531 535.699219 C 822.679688 533.332031 830.007812 526.363281 832.492188 517.507812 C 837 501.472656 837 468 837 468 C 837 468 837 434.527344 832.492188 418.480469 Z M 832.492188 418.480469"/><path fill="#18224B" d="M 650.996094 522 L 636.003906 522 L 636.003906 428.894531 L 621 428.894531 L 621 414 L 666 414 L 666 428.894531 L 650.996094 428.894531 Z M 711 522 L 697.5 522 L 695.996094 511.8125 C 690.074219 518.210938 683.027344 522 677.546875 522 C 672.75 522 669.375 519.921875 667.71875 516.121094 C 666.746094 513.746094 666 510.183594 666 504.828125 L 666 436.5 L 681.003906 436.5 L 681.003906 506.3125 C 681.382812 508.472656 682.957031 509.28125 684.898438 509.28125 C 687.898438 509.28125 692.703125 506.015625 695.996094 501.695312 L 695.996094 436.5 L 711 436.5 Z M 819 482.96875 L 819 458.65625 C 819 451.664062 817.273438 446.617188 814.203125 443.339844 C 810.082031 438.875 804.148438 436.5 796.726562 436.5 C 789.148438 436.5 783.296875 438.875 779.023438 443.339844 C 775.800781 446.605469 774 451.960938 774 458.953125 L 774 500.292969 C 774 507.203125 776.023438 512.109375 779.175781 515.3125 C 783.449219 519.769531 789.300781 522 797.101562 522 C 804.824219 522 810.898438 519.695312 814.949219 514.933594 C 816.75 512.855469 817.945312 510.472656 818.476562 507.871094 C 818.550781 506.683594 819 503.488281 819 499.699219 L 803.996094 499.699219 L 803.996094 505.648438 C 803.996094 509.066406 800.621094 511.894531 796.5 511.894531 C 792.378906 511.894531 789.003906 509.066406 789.003906 505.648438 L 789.003906 482.96875 Z M 789.003906 453.527344 C 789.003906 450.035156 792.378906 447.28125 796.5 447.28125 C 800.621094 447.28125 803.996094 450.035156 803.996094 453.527344 L 803.996094 472.636719 L 788.992188 472.636719 L 788.992188 453.527344 Z M 763.046875 445.429688 C 761.175781 439.613281 756.59375 436.417969 750.898438 436.339844 C 743.625 436.265625 740.617188 440.0625 734.992188 446.617188 L 734.992188 414 L 720 414 L 720 522 L 733.5 522 L 735.003906 512.695312 C 739.726562 518.5 745.875 522 750.898438 522 C 756.59375 522 761.472656 519.019531 763.34375 513.207031 C 764.242188 510.074219 764.917969 507.175781 764.992188 500.617188 L 764.992188 461.519531 C 765 454.148438 764.027344 448.558594 763.046875 445.429688 Z M 749.996094 498.691406 C 749.996094 506.511719 748.195312 509.191406 744.148438 509.191406 C 741.824219 509.191406 737.398438 507.628906 734.992188 505.242188 L 734.992188 454.066406 C 737.398438 451.683594 741.816406 449.378906 744.148438 449.378906 C 748.195312 449.378906 749.996094 451.835938 749.996094 459.65625 Z M 749.996094 498.691406"/><path fill="#FBE820" d="M 639 270 L 655.515625 270.007812 L 666.199219 321.417969 L 667.234375 321.417969 L 677.386719 270.019531 L 694.089844 270.007812 L 675 341.035156 L 675 378 L 658.59375 378 L 658.566406 343.035156 Z M 694.25 315.738281 C 694.25 309.691406 696.222656 304.855469 700.164062 301.285156 C 704.097656 297.691406 709.378906 295.882812 716.039062 295.875 C 722.113281 295.875 727.066406 297.757812 730.933594 301.546875 C 734.796875 305.308594 736.738281 310.183594 736.738281 316.144531 L 736.765625 356.507812 C 736.765625 363.1875 734.886719 368.441406 731.097656 372.277344 C 727.308594 376.09375 722.105469 378 715.4375 378 C 709.011719 378 703.90625 376.011719 700.027344 372.097656 C 696.175781 368.179688 694.269531 362.890625 694.261719 356.257812 L 694.234375 315.730469 Z M 709.335938 357.714844 C 709.335938 359.839844 709.847656 361.519531 710.9375 362.691406 C 711.972656 363.84375 713.449219 364.429688 715.390625 364.429688 C 717.382812 364.429688 718.9375 363.835938 720.109375 362.617188 C 721.269531 361.457031 721.871094 359.792969 721.871094 357.695312 L 721.84375 315.117188 C 721.84375 313.425781 721.222656 312.039062 720.035156 310.984375 C 718.855469 309.941406 717.289062 309.410156 715.363281 309.410156 C 713.574219 309.410156 712.117188 309.949219 710.992188 310.996094 C 709.875 312.046875 709.316406 313.433594 709.316406 315.125 Z M 792 297 L 792 378 L 779.175781 378 L 777.132812 368.101562 C 774.386719 371.320312 771.535156 373.769531 768.554688 375.433594 C 765.601562 377.109375 762.722656 378 759.933594 378 C 756.476562 378 753.894531 376.8125 752.140625 374.453125 C 750.382812 372.121094 749.519531 368.605469 749.519531 363.886719 L 749.484375 297 L 764.359375 297 L 764.398438 358.425781 C 764.398438 360.261719 764.722656 361.621094 765.351562 362.464844 C 765.945312 363.277344 766.996094 363.726562 768.367188 363.726562 C 769.480469 363.726562 770.867188 363.167969 772.507812 362.050781 C 774.199219 360.953125 775.726562 359.523438 777.113281 357.8125 L 777.097656 297 Z M 792 297"/></svg>