<svg xmlns="http://www.w3.org/2000/svg" width="1440" viewBox="0 0 1440 810" height="810" version="1.0"><defs><clipPath id="a"><path d="M 489.804688 243 L 950.304688 243 L 950.304688 566 L 489.804688 566 Z M 489.804688 243"/></clipPath></defs><path fill="#FFF" d="M-144 -81H1584V891H-144z"/><path fill="#FFF" d="M-144 -81H1584V891H-144z"/><path fill="#18224B" d="M-144 -81H1584V891H-144z"/><g clip-path="url(#a)"><path fill="#FBE820" d="M 940.253906 293.832031 C 939.59375 291.402344 938.777344 289.023438 937.808594 286.699219 C 936.839844 284.375 935.722656 282.121094 934.460938 279.941406 C 933.199219 277.765625 931.800781 275.675781 930.265625 273.679688 C 928.730469 271.683594 927.070312 269.792969 925.289062 268.011719 C 923.507812 266.230469 921.617188 264.574219 919.621094 263.039062 C 917.625 261.503906 915.535156 260.105469 913.355469 258.84375 C 911.175781 257.578125 908.921875 256.464844 906.597656 255.496094 C 904.273438 254.527344 901.894531 253.710938 899.460938 253.050781 C 863.703125 243.289062 719.765625 243.289062 719.765625 243.289062 C 719.765625 243.289062 575.824219 243.578125 540.054688 253.339844 C 537.625 254 535.246094 254.8125 532.921875 255.78125 C 530.597656 256.75 528.34375 257.867188 526.164062 259.128906 C 523.984375 260.394531 521.894531 261.792969 519.898438 263.328125 C 517.902344 264.859375 516.011719 266.519531 514.230469 268.300781 C 512.449219 270.082031 510.789062 271.96875 509.253906 273.964844 C 507.71875 275.964844 506.320312 278.050781 505.058594 280.230469 C 503.796875 282.410156 502.679688 284.660156 501.710938 286.988281 C 500.742188 289.3125 499.925781 291.6875 499.265625 294.121094 C 489.804688 329.878906 489.804688 404.640625 489.804688 404.640625 C 489.804688 404.640625 489.804688 479.402344 499.5625 515.449219 C 500.222656 517.878906 501.035156 520.257812 502.003906 522.582031 C 502.972656 524.90625 504.089844 527.160156 505.351562 529.335938 C 506.617188 531.515625 508.015625 533.605469 509.550781 535.601562 C 511.085938 537.597656 512.742188 539.488281 514.523438 541.269531 C 516.304688 543.050781 518.195312 544.707031 520.195312 546.242188 C 522.191406 547.777344 524.28125 549.175781 526.460938 550.4375 C 528.640625 551.699219 530.890625 552.816406 533.214844 553.785156 C 535.542969 554.753906 537.921875 555.570312 540.351562 556.230469 C 576.113281 565.988281 720.054688 565.988281 720.054688 565.988281 C 720.054688 565.988281 863.996094 565.988281 899.765625 556.234375 C 902.195312 555.578125 904.574219 554.761719 906.898438 553.792969 C 909.226562 552.824219 911.476562 551.707031 913.65625 550.445312 C 915.835938 549.183594 917.925781 547.785156 919.921875 546.25 C 921.921875 544.714844 923.808594 543.058594 925.589844 541.277344 C 927.371094 539.496094 929.03125 537.605469 930.566406 535.609375 C 932.101562 533.613281 933.5 531.523438 934.761719 529.34375 C 936.027344 527.164062 937.140625 524.914062 938.113281 522.589844 C 939.082031 520.265625 939.894531 517.886719 940.554688 515.457031 C 950.304688 479.695312 950.304688 404.640625 950.304688 404.640625 C 950.304688 404.640625 950.015625 329.878906 940.253906 293.832031 Z M 940.253906 293.832031"/></g><path fill="#010101" d="M 673.945312 473.785156 L 793.351562 404.640625 L 673.941406 335.496094 Z M 673.945312 473.785156"/></svg>