<svg xmlns="http://www.w3.org/2000/svg" width="1440" viewBox="0 0 1440 810" height="810" version="1.0"><path fill="#FFF" d="M-144 -81H1584V891H-144z"/><path fill="#FFF" d="M-144 -81H1584V891H-144z"/><path fill="#18224B" d="M-144 -81H1584V891H-144z"/><path fill="#E71D3E" d="M 882 405 C 882 494.457031 809.484375 567 720 567 C 630.542969 567 558 494.457031 558 405 C 558 315.515625 630.542969 243 720 243 C 809.484375 243 882 315.515625 882 405"/><path fill="#D11D36" d="M 821.769531 531.015625 L 821.652344 530.988281 L 821.191406 530.785156 L 820.703125 530.585938 L 820.1875 530.355469 L 819.726562 530.183594 L 819.238281 529.953125 L 818.71875 529.722656 L 818.257812 529.550781 L 817.796875 529.347656 L 817.28125 529.117188 L 816.820312 528.945312 L 816.332031 528.714844 L 815.8125 528.484375 L 815.351562 528.3125 L 814.835938 528.109375 L 814.316406 527.878906 L 813.859375 527.679688 L 813.339844 527.476562 L 812.878906 527.277344 L 811.902344 526.875 L 811.382812 526.644531 L 810.894531 526.441406 L 810.40625 526.210938 L 809.945312 526.039062 L 809.484375 525.839844 L 808.96875 525.609375 L 807.011719 524.804688 L 806.492188 524.574219 L 806.035156 524.371094 L 805.542969 524.171875 L 805.027344 523.96875 L 804.566406 523.738281 L 804.078125 523.566406 L 803.589844 523.335938 L 802.121094 522.730469 L 801.632812 522.5 L 801.144531 522.300781 L 800.625 522.097656 L 800.164062 521.898438 L 799.675781 521.695312 L 799.160156 521.464844 L 798.699219 521.292969 L 798.210938 521.0625 L 797.691406 520.863281 L 797.230469 520.660156 L 796.742188 520.460938 L 796.226562 520.230469 L 795.765625 520.058594 L 795.246094 519.828125 L 794.785156 519.625 L 793.808594 519.222656 L 793.292969 518.992188 L 792.832031 518.820312 L 792.34375 518.589844 L 791.824219 518.359375 L 791.363281 518.1875 L 790.847656 517.957031 L 790.386719 517.753906 L 789.898438 517.554688 L 789.378906 517.351562 L 788.890625 517.152344 L 788.402344 516.921875 L 787.941406 516.75 L 787.421875 516.519531 L 786.964844 516.316406 L 786.445312 516.085938 L 785.984375 515.914062 L 785.496094 515.683594 L 785.007812 515.511719 L 784.519531 515.28125 L 784 515.082031 L 783.539062 514.878906 L 782.992188 514.648438 L 782.503906 514.449219 L 782.074219 514.246094 L 781.554688 514.046875 L 781.066406 513.84375 L 780.605469 513.640625 L 780.058594 513.414062 L 779.140625 513.007812 L 778.648438 512.808594 L 778.132812 512.578125 L 777.671875 512.40625 L 777.183594 512.175781 L 776.664062 511.972656 L 776.207031 511.773438 L 775.714844 511.570312 L 775.167969 511.339844 L 774.710938 511.167969 L 774.21875 510.9375 L 773.703125 510.707031 L 773.214844 510.535156 L 772.8125 510.335938 L 772.234375 510.105469 L 771.316406 509.703125 L 770.796875 509.472656 L 770.335938 509.300781 L 769.820312 509.070312 L 768.839844 508.667969 L 768.410156 508.464844 L 767.835938 508.234375 L 767.347656 508.035156 L 766.914062 507.859375 L 766.367188 507.628906 L 765.878906 507.402344 L 765.449219 507.226562 L 764.902344 507.027344 L 764.441406 506.796875 L 763.460938 506.394531 L 762.972656 506.164062 L 762.484375 505.960938 L 762.023438 505.789062 L 761.507812 505.558594 L 760.527344 505.15625 L 760.011719 504.925781 L 759.578125 504.753906 L 759.0625 504.554688 L 758.574219 504.324219 L 758.054688 504.121094 L 757.625 503.921875 L 757.078125 503.71875 L 756.617188 503.488281 L 756.15625 503.316406 L 755.609375 503.085938 L 755.148438 502.882812 L 754.660156 502.683594 L 754.144531 502.453125 L 753.222656 502.050781 L 752.675781 501.820312 L 752.246094 501.648438 L 751.726562 501.417969 L 751.210938 501.214844 L 750.75 501.042969 L 750.261719 500.8125 L 749.742188 500.582031 L 749.28125 500.410156 L 748.792969 500.210938 L 748.273438 499.980469 L 747.785156 499.777344 L 747.355469 499.578125 L 746.835938 499.375 L 745.859375 498.972656 L 745.371094 498.742188 L 744.390625 498.339844 L 743.875 498.109375 L 743.386719 497.910156 L 742.953125 497.734375 L 742.40625 497.503906 L 741.890625 497.277344 L 741.457031 497.101562 L 740.941406 496.902344 L 740.480469 496.671875 L 739.503906 496.269531 L 738.984375 496.039062 L 738.523438 495.867188 L 738.035156 495.664062 L 737.515625 495.433594 L 737.113281 495.261719 L 736.539062 495.03125 L 736.050781 494.832031 L 735.589844 494.628906 L 735.101562 494.429688 L 734.554688 494.199219 L 734.125 493.996094 L 733.632812 493.796875 L 733.117188 493.566406 L 732.65625 493.363281 L 732.136719 493.164062 L 731.679688 492.960938 L 731.1875 492.757812 L 730.671875 492.558594 L 730.183594 492.328125 L 729.722656 492.15625 L 729.234375 491.925781 L 728.714844 491.722656 L 728.226562 491.492188 L 727.765625 491.320312 L 727.25 491.089844 L 726.757812 490.890625 L 726.242188 490.6875 L 725.808594 490.488281 L 725.320312 490.285156 L 724.804688 490.054688 L 724.34375 489.882812 L 723.824219 489.652344 L 723.367188 489.453125 L 722.875 489.25 L 722.359375 489.019531 L 721.871094 488.820312 L 721.410156 488.644531 L 720.890625 488.417969 L 720.429688 488.214844 L 719.914062 488.011719 L 719.425781 487.785156 L 717.46875 486.976562 L 717.007812 486.777344 L 716.519531 486.574219 L 716.03125 486.34375 L 715.511719 486.144531 L 715.023438 485.914062 L 714.535156 485.742188 L 714.074219 485.511719 L 713.585938 485.308594 L 713.066406 485.109375 L 712.089844 484.707031 L 711.601562 484.476562 L 711.113281 484.304688 L 710.59375 484.074219 L 710.132812 483.871094 L 709.644531 483.671875 L 709.128906 483.441406 L 708.667969 483.238281 L 708.179688 483.039062 L 707.71875 482.863281 L 706.683594 482.40625 L 706.222656 482.203125 L 705.734375 482.03125 L 705.242188 481.800781 L 704.726562 481.597656 L 704.265625 481.398438 L 703.777344 481.167969 L 703.289062 480.996094 L 702.800781 480.765625 L 701.332031 480.160156 L 700.871094 479.929688 L 700.355469 479.757812 L 699.863281 479.527344 L 699.347656 479.328125 L 698.886719 479.125 L 698.398438 478.894531 L 697.421875 478.492188 L 696.902344 478.292969 L 696.441406 478.089844 L 695.925781 477.859375 L 695.464844 477.660156 L 694.484375 477.253906 L 693.96875 477.027344 L 693.535156 476.851562 L 692.992188 476.621094 L 692.53125 476.421875 L 692.042969 476.21875 L 691.582031 476.019531 L 691.035156 475.789062 L 690.574219 475.617188 L 690.085938 475.386719 L 689.566406 475.183594 L 689.078125 474.984375 L 688.617188 474.78125 L 688.101562 474.582031 L 687.640625 474.351562 L 687.121094 474.148438 L 686.664062 473.949219 L 685.683594 473.546875 L 685.167969 473.316406 L 684.734375 473.140625 L 684.21875 472.914062 L 683.726562 472.710938 L 683.210938 472.480469 L 682.722656 472.28125 L 682.261719 472.105469 L 681.773438 471.90625 L 681.253906 471.648438 L 680.792969 471.472656 L 680.304688 471.273438 L 679.789062 471.042969 L 679.296875 470.839844 L 678.839844 470.640625 L 678.347656 470.46875 L 677.832031 470.207031 L 677.34375 470.035156 L 676.882812 469.804688 L 676.363281 469.605469 L 675.90625 469.402344 L 675.386719 469.203125 L 674.925781 469 L 674.410156 468.769531 L 673.949219 468.597656 L 673.429688 468.367188 L 672.941406 468.167969 L 672.480469 467.964844 L 671.992188 467.761719 L 671.476562 467.535156 L 671.015625 467.332031 L 670.496094 467.128906 L 670.007812 466.902344 L 669.519531 466.699219 L 669.058594 466.496094 L 668.570312 466.324219 L 668.050781 466.066406 L 667.589844 465.894531 L 667.074219 465.664062 L 666.585938 465.492188 L 666.125 465.289062 L 665.605469 465.058594 L 665.117188 464.859375 L 664.65625 464.65625 L 664.140625 464.457031 L 663.652344 464.226562 L 663.160156 464.023438 L 662.703125 463.824219 L 662.183594 463.621094 L 661.695312 463.390625 L 661.234375 463.21875 L 660.71875 462.988281 L 660.257812 462.789062 L 659.738281 462.585938 L 659.277344 462.382812 L 658.730469 462.15625 L 658.300781 461.953125 L 657.265625 461.550781 L 656.34375 461.148438 L 655.828125 460.917969 L 655.308594 460.714844 L 654.878906 460.515625 L 654.359375 460.3125 L 653.84375 460.082031 L 653.410156 459.910156 L 653.035156 459.738281 C 650.363281 458.789062 647.601562 457.234375 645.15625 454.675781 C 640.179688 449.640625 638.570312 438.195312 638.570312 438.195312 C 638.570312 438.195312 636.898438 424.730469 636.898438 411.269531 L 636.898438 398.671875 C 636.898438 385.210938 638.570312 371.777344 638.570312 371.777344 C 638.570312 371.777344 640.179688 360.300781 645.15625 355.265625 C 651.484375 348.652344 658.558594 348.621094 661.808594 348.21875 C 685.082031 346.550781 719.972656 346.550781 719.972656 346.550781 L 720.027344 346.550781 C 720.027344 346.550781 754.917969 346.550781 778.191406 348.21875 C 780.375 348.476562 784.289062 348.59375 788.546875 350.636719 L 788.832031 350.78125 L 789.292969 350.953125 L 789.839844 351.210938 L 790.269531 351.382812 L 790.761719 351.585938 L 791.277344 351.816406 L 791.765625 352.015625 L 792.226562 352.21875 L 792.773438 352.417969 L 793.203125 352.621094 L 793.722656 352.820312 L 794.210938 353.050781 L 794.671875 353.222656 L 795.21875 353.484375 L 795.648438 353.65625 L 796.167969 353.855469 L 796.65625 354.085938 L 797.117188 354.289062 L 797.632812 354.488281 L 798.09375 354.691406 L 798.582031 354.894531 L 799.101562 355.121094 L 799.5625 355.324219 L 800.078125 355.527344 L 802.035156 356.332031 L 802.523438 356.5625 L 803.503906 356.964844 L 803.960938 357.164062 L 804.507812 357.394531 L 804.941406 357.566406 L 805.429688 357.796875 L 805.949219 358 L 806.4375 358.230469 L 806.898438 358.402344 L 807.441406 358.632812 L 808.363281 359.035156 L 808.882812 359.234375 L 809.371094 359.4375 L 809.886719 359.667969 L 810.347656 359.867188 L 810.867188 360.070312 L 811.296875 360.273438 L 811.84375 360.5 L 812.304688 360.675781 L 812.765625 360.875 L 813.28125 361.105469 L 813.769531 361.308594 L 814.230469 361.507812 L 814.75 361.710938 L 815.210938 361.910156 L 815.757812 362.140625 L 816.246094 362.34375 L 816.675781 362.515625 L 817.222656 362.773438 L 817.683594 362.945312 L 818.199219 363.175781 L 818.660156 363.347656 L 819.179688 363.578125 L 819.640625 363.78125 L 820.15625 364.011719 L 820.644531 364.210938 L 821.078125 364.386719 L 821.625 364.613281 L 822.085938 364.816406 L 822.574219 365.019531 L 823.089844 365.246094 L 823.550781 365.449219 L 824.070312 365.652344 L 824.527344 365.851562 L 825.046875 366.082031 L 825.507812 366.253906 L 825.996094 366.484375 L 826.484375 366.6875 L 827.003906 366.886719 L 827.464844 367.089844 L 828.441406 367.492188 L 828.957031 367.722656 L 829.449219 367.921875 L 829.90625 368.125 L 830.398438 368.324219 L 830.914062 368.554688 L 831.375 368.757812 L 832.351562 369.160156 L 832.871094 369.359375 L 833.332031 369.5625 L 833.847656 369.792969 L 835.316406 370.398438 L 835.746094 370.597656 L 836.265625 370.800781 L 836.78125 371.03125 L 837.242188 371.230469 L 837.730469 371.433594 L 838.25 371.632812 L 838.710938 371.835938 L 839.257812 372.066406 L 840.175781 372.46875 L 840.722656 372.667969 L 841.15625 372.871094 L 841.644531 373.070312 L 842.132812 373.300781 L 842.652344 373.503906 L 843.109375 373.703125 L 843.628906 373.933594 L 844.058594 374.105469 L 844.605469 374.335938 L 845.125 374.539062 L 845.527344 374.738281 L 846.042969 374.941406 L 846.589844 375.171875 L 847.023438 375.34375 L 847.539062 375.574219 L 848.519531 375.976562 L 848.980469 376.179688 L 849.523438 376.410156 L 849.984375 376.609375 L 850.445312 376.78125 L 850.964844 377.011719 L 851.421875 377.214844 L 851.941406 377.414062 L 852.460938 377.644531 L 852.890625 377.816406 L 853.378906 378.046875 L 853.953125 378.277344 L 854.328125 378.449219 L 854.902344 378.679688 L 855.363281 378.882812 L 855.851562 379.082031 L 856.371094 379.285156 L 856.832031 379.484375 L 857.320312 379.6875 L 857.808594 379.917969 L 858.328125 380.117188 L 858.789062 380.320312 L 860.253906 380.925781 L 860.742188 381.15625 L 861.203125 381.355469 L 861.722656 381.558594 L 862.699219 381.960938 L 863.21875 382.191406 L 863.648438 382.363281 L 864.195312 382.59375 L 864.683594 382.792969 L 865.117188 382.996094 L 865.632812 383.195312 L 866.152344 383.425781 L 867.070312 383.828125 L 867.589844 384.03125 L 868.105469 384.261719 L 868.566406 384.460938 L 869.085938 384.664062 L 869.515625 384.863281 L 870.035156 385.066406 L 870.550781 385.296875 L 871.011719 385.496094 L 871.5 385.699219 L 872.046875 385.902344 L 872.449219 386.101562 L 872.96875 386.304688 L 873.484375 386.535156 L 873.945312 386.707031 L 874.464844 386.9375 L 874.925781 387.136719 L 875.902344 387.539062 L 876.390625 387.769531 L 877.367188 388.171875 L 877.886719 388.375 L 878.40625 388.605469 L 878.808594 388.777344 L 879.355469 389.007812 L 879.84375 389.207031 L 880.304688 389.410156 L 881.28125 389.8125 C 881.742188 394.789062 882 399.851562 882 404.941406 C 882 404.972656 882 404.972656 882 405 C 882 455.914062 858.5 501.332031 821.769531 531.015625 M 702.828125 381.527344 L 702.855469 426.574219 L 740.796875 406.898438 L 742.839844 408.25 L 749.828125 404.625 L 747.527344 403.417969 L 747.757812 403.304688 L 702.828125 379.859375 L 702.828125 380.089844 L 692.960938 374.941406 L 702.828125 381.527344"/><path fill="#EA2C52" d="M 740.796875 406.898438 L 702.828125 381.527344 L 702.828125 380.089844 L 747.527344 403.417969 L 740.796875 406.898438"/><path fill="#D72C4B" d="M 742.839844 408.25 L 740.796875 406.898438 L 747.527344 403.417969 L 749.828125 404.625 L 742.839844 408.25 M 702.828125 381.527344 L 692.960938 374.941406 L 702.828125 380.089844 L 702.828125 381.527344"/><path fill="#FFF" d="M 702.855469 426.574219 L 702.828125 379.859375 L 747.757812 403.304688 Z M 801.460938 371.777344 C 801.460938 371.777344 799.847656 360.300781 794.84375 355.265625 C 788.515625 348.652344 781.441406 348.621094 778.191406 348.21875 C 754.917969 346.550781 720.027344 346.550781 720.027344 346.550781 L 719.972656 346.550781 C 719.972656 346.550781 685.082031 346.550781 661.808594 348.21875 C 658.558594 348.621094 651.484375 348.652344 645.15625 355.265625 C 640.179688 360.300781 638.570312 371.777344 638.570312 371.777344 C 638.570312 371.777344 636.898438 385.210938 636.898438 398.671875 L 636.898438 411.269531 C 636.898438 424.730469 638.570312 438.195312 638.570312 438.195312 C 638.570312 438.195312 640.179688 449.640625 645.15625 454.675781 C 651.484375 461.320312 659.796875 461.089844 663.476562 461.78125 C 676.796875 463.074219 720 463.449219 720 463.449219 C 720 463.449219 754.917969 463.390625 778.191406 461.722656 C 781.441406 461.347656 788.515625 461.320312 794.84375 454.675781 C 799.820312 449.640625 801.460938 438.195312 801.460938 438.195312 C 801.460938 438.195312 803.101562 424.730469 803.101562 411.269531 L 803.101562 398.671875 C 803.101562 385.210938 801.460938 371.777344 801.460938 371.777344"/></svg>