<svg xmlns="http://www.w3.org/2000/svg" width="1440" viewBox="0 0 1440 810" height="810" version="1.0"><defs><clipPath id="a"><path d="M 559.472656 243 L 880.453125 243 L 880.453125 567 L 559.472656 567 Z M 559.472656 243"/></clipPath></defs><path fill="#FFF" d="M-144 -81H1584V891H-144z"/><path fill="#FFF" d="M-144 -81H1584V891H-144z"/><path fill="#18224B" d="M-144 -81H1584V891H-144z"/><g clip-path="url(#a)"><path fill="#FBE820" d="M 720.320312 255.65625 C 639.898438 255.339844 572.992188 320.777344 572.128906 403.332031 C 571.238281 487.351562 638.402344 553.625 718.566406 554.34375 C 799.683594 555.121094 867.335938 489.367188 867.855469 406.496094 C 868.285156 322.792969 802.269531 255.65625 720.320312 255.65625 Z M 720.179688 243 C 809.117188 243 880.828125 315.660156 880.421875 406.238281 C 880.105469 495.03125 808.28125 567.976562 718.050781 567 C 629.828125 565.964844 558.582031 493.304688 559.472656 403.273438 C 560.308594 314.96875 631.238281 243.144531 720.179688 243"/></g><path fill="#DF2526" d="M 697.511719 441.300781 C 717.417969 430.398438 736.773438 419.785156 756.621094 408.941406 C 751.445312 406.09375 746.785156 403.503906 742.066406 401 C 728.117188 393.378906 714.253906 385.699219 700.300781 378.078125 C 699.179688 377.5 697.511719 375.804688 697.511719 379.027344 C 697.511719 399.59375 697.511719 420.101562 697.511719 441.300781 Z M 714.167969 340.855469 C 740.199219 340.855469 761.769531 341.316406 783.230469 342.464844 C 788.578125 342.726562 794.015625 342.871094 799.164062 344.539062 C 809.691406 348.105469 814.609375 356.246094 816.941406 366.457031 C 819.214844 376.4375 819.585938 386.734375 819.789062 396.917969 C 820.164062 415.011719 820.304688 433.101562 818.089844 451.050781 C 817.402344 457.003906 815.847656 462.671875 813.058594 467.964844 C 809.003906 475.617188 802.15625 479.355469 793.871094 480.5625 C 785.15625 481.800781 776.324219 482 767.464844 482.316406 C 731.425781 483.671875 695.382812 483.296875 659.34375 481.859375 C 653.332031 481.597656 647.320312 481.226562 641.394531 479.929688 C 632.417969 477.917969 625.890625 473.085938 622.582031 464.109375 C 618.898438 454.101562 618.527344 443.6875 617.921875 433.304688 C 616.914062 413.398438 617.171875 393.496094 619.300781 373.675781 C 619.933594 367.867188 621.429688 362.257812 624.019531 357.019531 C 628.59375 347.644531 636.878906 343.90625 646.742188 343.128906 C 670.703125 341.257812 694.722656 341 714.167969 340.855469"/><path fill="#FFF" d="M 697.511719 441.300781 C 697.511719 420.101562 697.511719 399.59375 697.511719 379.027344 C 697.511719 375.804688 699.179688 377.5 700.300781 378.078125 C 714.253906 385.699219 728.203125 393.378906 742.066406 401 C 746.726562 403.589844 751.445312 406.09375 756.621094 408.941406 C 736.71875 419.871094 717.417969 430.457031 697.511719 441.300781"/></svg>